<svg xmlns="http://www.w3.org/2000/svg" width="100.497" height="99.724" viewBox="0 0 100.497 99.724" xmlns:dc="http://purl.org/dc/elements/1.1/" xmlns:cc="http://creativecommons.org/ns#" xmlns:rdf="http://www.w3.org/1999/02/22-rdf-syntax-ns#" xmlns:svg="http://www.w3.org/2000/svg" stroke="rgb(72, 72, 72)" fill="rgb(0, 0, 0)">
<path id="activity_sail" d="M91.876,307.169l3.785-.06c9.167-3.765,16.391-9.256,22.95-15.337l-.09-.359-98.91,9.819a13.779,13.779,0,0,0,1.895,7.067l53.292-.943m4.9-.066,8.02-.076m-34.8-16.066c-7.033.354-13.907,1.027-20.912,1.935,6.935-27.112,21.417-51.257,42.341-72.871,15.882,20.565,25.815,47.3,29.058,72.354a217.286,217.286,0,0,0-35.462-2.085m.753,5.692-.124-9.724c-.04-3.189-12.866-3.3-14.016,0l-2.817,8.079-.755,3.607M42.819,313H80.5m-8.089,5.146H87.18M67.56,273.986a3.606,3.606,0,0,0-.238-1.483c-1.077-2.639-7.61-3.658-8.44.23a11.943,11.943,0,0,0,.161,4.929,4.946,4.946,0,0,0,3.183,2.682,3.483,3.483,0,0,0,4.359-1.9A14.974,14.974,0,0,0,67.56,273.986Z" transform="translate(-18.903 -219.13)" fill="none" stroke="#345e41" stroke-miterlimit="22.926" stroke-width="1.417" fill-rule="evenodd"/>
</svg>