<svg xmlns="http://www.w3.org/2000/svg" width="23.342" height="22.861" viewBox="0 0 23.342 22.861" xmlns:dc="http://purl.org/dc/elements/1.1/" xmlns:cc="http://creativecommons.org/ns#" xmlns:rdf="http://www.w3.org/1999/02/22-rdf-syntax-ns#" xmlns:svg="http://www.w3.org/2000/svg" stroke="rgb(72, 72, 72)" fill="rgb(0, 0, 0)"> <g id="wc" transform="translate(0.5 0.5)"> <g id="Group_141" data-name="Group 141" transform="translate(11.541)"> <path id="Path_237" data-name="Path 237" d="M996.166,635.844l1.865-6.528a1.442,1.442,0,0,1,1.387-1.047h4.315a1.442,1.442,0,0,1,1.387,1.047l1.865,6.528" transform="translate(-996.166 -621.418)" fill="none" stroke="#000" stroke-miterlimit="22.926" stroke-width="1"/> <path id="Path_238" data-name="Path 238" d="M1000.134,632.331l-2.164,7.935h2.525v4.328" transform="translate(-996.528 -622.232)" fill="none" stroke="#000" stroke-miterlimit="22.926" stroke-width="1"/> <path id="Path_239" data-name="Path 239" d="M1005.1,632.331l2.164,7.935h-2.525v4.328" transform="translate(-997.885 -622.232)" fill="none" stroke="#000" stroke-miterlimit="22.926" stroke-width="1"/> <ellipse id="Ellipse_15" data-name="Ellipse 15" cx="2.525" cy="2.525" rx="2.525" ry="2.525" transform="translate(2.885)" fill="none" stroke="#000" stroke-miterlimit="22.926" stroke-width="1"/> </g> <g id="Group_142" data-name="Group 142" transform="translate(0)"> <path id="Path_240" data-name="Path 240" d="M981.729,635.844v-6.492a1.082,1.082,0,0,1,1.082-1.083H989.3a1.082,1.082,0,0,1,1.082,1.083v6.492" transform="translate(-981.729 -621.418)" fill="none" stroke="#000" stroke-miterlimit="22.926" stroke-width="1"/> <line id="Line_205" data-name="Line 205" y2="12.263" transform="translate(2.525 10.099)" fill="none" stroke="#000" stroke-miterlimit="22.926" stroke-width="1"/> <line id="Line_206" data-name="Line 206" y2="12.263" transform="translate(6.131 10.099)" fill="none" stroke="#000" stroke-miterlimit="22.926" stroke-width="1"/> <ellipse id="Ellipse_16" data-name="Ellipse 16" cx="2.525" cy="2.525" rx="2.525" ry="2.525" transform="translate(1.803)" fill="none" stroke="#000" stroke-miterlimit="22.926" stroke-width="1"/> </g> </g> </svg>