<svg xmlns="http://www.w3.org/2000/svg" width="98.514" height="58.154" viewBox="0 0 98.514 58.154">
<path id="caravan" d="M149.845,138.872H168.51c.525,0,.954.612.954,1.361v10c0,.749-.429,1.361-.954,1.361H149.845c-.525,0-.955-.612-.955-1.361v-10c0-.749.43-1.361.955-1.361Zm-23.327,0h12.452a2.713,2.713,0,0,1,2.848,2.531v28.523a2.715,2.715,0,0,1-2.848,2.533H126.517a2.712,2.712,0,0,1-2.849-2.533V141.4a2.71,2.71,0,0,1,2.849-2.531Zm29.672,25.758a9.556,9.556,0,0,1,9.556,9.557c0,12.571-19.113,12.571-19.113,0a9.557,9.557,0,0,1,9.557-9.557Zm-9.3,11.95-27.317.006c-2.634.061-3.472-1.724-3.541-3.915V153.026c.074-14.637,1.592-23.14,15.714-24.868a112.417,112.417,0,0,1,32.082,1.256c17.55,3.243,32.52,13.33,32.52,37.047v10.111l-30.858.006m30.858-.006h16.2v-4.441" transform="translate(-115.031 -126.462)" fill="none" stroke="#446851" stroke-linecap="round" stroke-linejoin="round" stroke-miterlimit="22.926" stroke-width="2" fill-rule="evenodd"></path>
</svg>