<svg class="qodef-ei-svg-icon qodef--bed_single" xmlns="http://www.w3.org/2000/svg" width="8.61mm" height="7.86mm" viewBox="0 0 24.41 22.28" xmlns:dc="http://purl.org/dc/elements/1.1/" xmlns:cc="http://creativecommons.org/ns#" xmlns:rdf="http://www.w3.org/1999/02/22-rdf-syntax-ns#" xmlns:svg="http://www.w3.org/2000/svg" stroke="rgb(62, 62, 62)" fill="none"><defs><style>.cls-1{fill:none;stroke:#3e3e3e;stroke-linecap:round;stroke-linejoin:round;}</style></defs><title>bed_single</title><g><g><g><path class="cls-1" d="M2.63,2.63A2.13,2.13,0,0,1,4.75.5h0"/><path class="cls-1" d="M21.78,2.63A2.13,2.13,0,0,0,19.65.5h0"/><line class="cls-1" x1="4.76" y1="0.5" x2="19.65" y2="0.5"/><line class="cls-1" x1="2.63" y1="2.63" x2="2.63" y2="11.14"/><line class="cls-1" x1="21.78" y1="2.63" x2="21.78" y2="11.14"/><line class="cls-1" x1="2.63" y1="11.14" x2="21.78" y2="11.14"/><line class="cls-1" x1="0.5" y1="13.27" x2="0.5" y2="19.65"/><line class="cls-1" x1="23.91" y1="13.27" x2="23.91" y2="19.65"/><path class="cls-1" d="M.5,13.27a2.13,2.13,0,0,1,2.13-2.13h0"/><path class="cls-1" d="M23.9,13.27a2.13,2.13,0,0,0-2.13-2.13h0"/><line class="cls-1" x1="0.5" y1="19.65" x2="23.91" y2="19.65"/><line class="cls-1" x1="2.63" y1="19.65" x2="2.63" y2="21.78"/><line class="cls-1" x1="21.78" y1="19.65" x2="21.78" y2="21.78"/><line class="cls-1" x1="6.35" y1="11.14" x2="6.35" y2="4.76"/><line class="cls-1" x1="18.06" y1="11.14" x2="18.06" y2="4.76"/><line class="cls-1" x1="6.35" y1="4.76" x2="18.05" y2="4.76"/></g></g></g></svg>