<svg xmlns="http://www.w3.org/2000/svg" width="116.486" height="87.133" viewBox="0 0 116.486 87.133">
<path id="activity_canoe" d="M398.749,99.263q2.282-.424,4.634-.846c41.71-7.481,18.879-17.6,1.573-22.84-8.313-2.515-17.219-4.321-25.693-6.344L374.8,63.514l-5.537-1.25L364.078,54.4l-6.252-1.428-4.108-3.4-5.54-.893-5.565-3.361m77.182,79.749c1.886-3.867,9.623-10.833,9.623-10.833s22.269-14.509,22.955-22.383c.745-6.979-12.987-11.768-34.06-17.883-2.845-.826-5.575-1.523-8.256-2.094h44.969M366.57,106.089c-10.683,2.578-19.453,5.047-26.436,7.21m49.18-2.586.442-8.765,6.177-5.369a2.892,2.892,0,0,0,.944-1.347l1.568-6.846c.777-2.494-3.808-2.986-4.35,0L392.455,93.5a2.47,2.47,0,0,1-1.19,1.25,32.021,32.021,0,0,1-18.339,3.084,2.225,2.225,0,0,1-1.66-.978l-2.581-4.411c-.836-1.891-4.813-1.116-4.415.953l2.911,6.837a3.014,3.014,0,0,0,1.157,1.228l6.583,2.372.523,6.725m.671-21.563c.01-2.29,1.94-3.611,4.207-3.816s4.4.747,4.823,3a12.4,12.4,0,0,1-.286,5.119,4.894,4.894,0,0,1-2.854,2.4,3.728,3.728,0,0,1-1.448.13,4.887,4.887,0,0,1-3.238-1.85,12.414,12.414,0,0,1-1.2-4.985Zm-18.571,5.441,2.113-.359,4.543-.772m4.594-.779,7.592-1.287m9-1.527,8.694-1.475m4.447-.755,4.252-.722,2.176-.369m-44.216,5.674a1.686,1.686,0,0,0-1.386-.518l-8.886.83c-3.139.328-2.263,6.726.9,6.087l8.749-1.769a2.1,2.1,0,0,0,1.494-2.277l-.163-.941m39.132-6.812.194,1.11a2.032,2.032,0,0,0,2.023,1.563l8.886-.83c3.139-.328,2.264-6.726-.9-6.087l-8.748,1.769a1.658,1.658,0,0,0-1.09.749m-7.72,44.287c-1.642,2.066-5.833,2.065-7.474,0-1.642,2.066-5.834,2.065-7.476,0-1.642,2.066-5.831,2.065-7.473,0m29.9-4.673c-1.639,2.064-5.831,2.062-7.473,0-1.642,2.064-5.833,2.062-7.474,0-1.642,2.064-5.834,2.062-7.476,0-1.642,2.064-5.831,2.062-7.473,0-1.643,2.064-5.834,2.062-7.476,0m18.686-12.988V122.7m8.871,0a24.208,24.208,0,0,0,4.032-9.638l-12.9-1.492-12.9,1.492a24.217,24.217,0,0,0,4.031,9.638m35.136-76.529h5.745m.519,4.176h17.679m-31.2,4.724H422.7m-18.386,4.14a7.758,7.758,0,1,1,1.876-5.06m-26.057.92h10.9m-4.673-5.486h5.744" transform="translate(-339.247 -44.353)" fill="none" stroke="#446851" stroke-linecap="round" stroke-linejoin="round" stroke-miterlimit="22.926" stroke-width="1.417" fill-rule="evenodd"></path>
</svg>