<svg class="qodef-ei-svg-icon qodef--toliet" xmlns="http://www.w3.org/2000/svg" width="7.04mm" height="8.06mm" viewBox="0 0 19.94 22.86"><defs><style>.cls-1{fill:none;stroke:#3e3e3e;stroke-linecap:round;stroke-linejoin:round;}</style></defs><title>toliet</title><g><g><g><path class="cls-1" d="M19.44,12.16c0,3.22-1.46,4.37-4.37,5.83"></path><line class="cls-1" x1="15.07" y1="17.99" x2="16.53" y2="22.36"></line><line class="cls-1" x1="4.87" y1="17.99" x2="4.87" y2="22.36"></line><line class="cls-1" x1="4.87" y1="17.99" x2="1.96" y2="12.16"></line><line class="cls-1" x1="0.5" y1="12.16" x2="6.33" y2="12.16"></line><line class="cls-1" x1="0.5" y1="1.96" x2="0.5" y2="12.16"></line><path class="cls-1" d="M.5,2A1.46,1.46,0,0,1,2,.5H2"></path><line class="cls-1" x1="1.96" y1="0.5" x2="4.87" y2="0.5"></line><line class="cls-1" x1="6.33" y1="12.16" x2="19.44" y2="12.16"></line><line class="cls-1" x1="19.44" y1="12.16" x2="19.44" y2="11.43"></line><path class="cls-1" d="M19.44,11.43A1.46,1.46,0,0,0,18,10h0"></path><line class="cls-1" x1="8.51" y1="12.16" x2="8.51" y2="11.43"></line><path class="cls-1" d="M8.51,11.43A1.46,1.46,0,0,1,10,10h0"></path><line class="cls-1" x1="17.99" y1="9.97" x2="9.97" y2="9.97"></line><line class="cls-1" x1="4.87" y1="22.36" x2="16.53" y2="22.36"></line><path class="cls-1" d="M6.33,2A1.46,1.46,0,0,0,4.87.5h0"></path><line class="cls-1" x1="6.33" y1="12.16" x2="6.33" y2="1.96"></line></g></g></g></svg>