<svg class="qodef-ei-svg-icon qodef--sink_kitch" xmlns="http://www.w3.org/2000/svg" width="9.17mm" height="6.23mm" viewBox="0 0 26 17.67" xmlns:dc="http://purl.org/dc/elements/1.1/" xmlns:cc="http://creativecommons.org/ns#" xmlns:rdf="http://www.w3.org/1999/02/22-rdf-syntax-ns#" xmlns:svg="http://www.w3.org/2000/svg" stroke="rgb(62, 62, 62)" fill="none"><defs><style>.cls-1{fill:none;stroke:#3e3e3e;stroke-linecap:round;stroke-linejoin:round;}</style></defs><title>sink</title><g><g><line class="cls-1" x1="0.5" y1="17.17" x2="25.5" y2="17.17"/><line class="cls-1" x1="0.5" y1="0.5" x2="0.5" y2="17.17"/><line class="cls-1" x1="25.5" y1="0.5" x2="25.5" y2="17.17"/><path class="cls-1" d="M3,4.67A1.66,1.66,0,0,1,4.66,3h0"/><path class="cls-1" d="M16.33,4.67A1.66,1.66,0,0,0,14.67,3h0"/><path class="cls-1" d="M3,13a1.67,1.67,0,0,0,1.67,1.67h0"/><path class="cls-1" d="M16.33,13a1.67,1.67,0,0,1-1.67,1.67h0"/><line class="cls-1" x1="3" y1="4.67" x2="3" y2="13"/><line class="cls-1" x1="4.67" y1="3" x2="14.67" y2="3"/><line class="cls-1" x1="16.33" y1="4.67" x2="16.33" y2="13"/><line class="cls-1" x1="14.67" y1="14.67" x2="4.67" y2="14.67"/><circle class="cls-1" cx="9.67" cy="8.83" r="1.25"/><line class="cls-1" x1="18.83" y1="3.83" x2="23" y2="3.83"/><line class="cls-1" x1="18.83" y1="6.33" x2="23" y2="6.33"/><line class="cls-1" x1="23" y1="8.83" x2="18.83" y2="8.83"/><line class="cls-1" x1="18.83" y1="11.33" x2="23" y2="11.33"/><line class="cls-1" x1="23" y1="13.83" x2="18.83" y2="13.83"/></g></g></svg>