<svg xmlns="http://www.w3.org/2000/svg" xmlns:xlink="http://www.w3.org/1999/xlink" x="0px" y="0px" viewBox="0 0 59.6 68.9" style="enable-background:new 0 0 59.6 68.9;" xml:space="preserve">
<style type="text/css">
</style>
<g id="Group_689" transform="translate(-358.49 -13696.639)">
<g id="Group_45" transform="translate(0)">
<g id="Group_42" transform="translate(9.714 12.465)">
<path id="Path_69" class="st0" d="M378.6,13714.9c-0.6,1.9-6.2,10-10.6,11.8h0.6c1.4,0,2.5,1.1,2.5,2.5c0,1.4-1.1,2.5-2.5,2.5
				c8.7,0,10-13.7,10-13.7"></path>
</g>
<path id="Path_70" class="st0" d="M378.3,13744.2h-4.4l-1.9-5c0,0,13.7-17.5,16.2-24.3c2.5,6.9,16.2,24.3,16.2,24.3l-1.9,5h-14.3
			v-16.8"></path>
<path id="Path_3839" class="st1" d="M403.7,13738.2c0,0,3.6,4.2,5.1,6"></path>
<path id="Path_3840" class="st1" d="M372.5,13738.6c0,0-3.2,3.8-4.5,5.4"></path>
</g>
</g>
<line id="Line_461" class="st1" x1="49.3" y1="40.5" x2="49.3" y2="19.8"></line>
<g>
<g id="Group_690" transform="translate(5.3 1.069)">
<path id="Path_3846" class="st1" d="M49,22.9l-2.6-1.3l-1.9-1.2"></path>
<path id="Path_3847" class="st1" d="M49,26.1l-2.6-1.3l-1.9-1.2"></path>
<path id="Path_3848" class="st1" d="M49,29.3l-2.6-1.3l-1.9-1.2"></path>
<path id="Path_3849" class="st1" d="M49,32.4l-2.6-1.3l-1.9-1.2"></path>
</g>
<g id="Group_690_1_" transform="translate(5.3 1.069)">
<path id="Path_3846_1_" class="st1" d="M43.5,20.4l-1.9,1.2l-2.6,1.3"></path>
<path id="Path_3847_1_" class="st1" d="M43.5,23.5l-1.9,1.2l-2.6,1.3"></path>
<path id="Path_3848_1_" class="st1" d="M43.5,26.7l-1.9,1.2l-2.6,1.3"></path>
<path id="Path_3849_1_" class="st1" d="M43.5,29.9l-1.9,1.2l-2.6,1.3"></path>
</g>
</g>
<path id="Path_71" class="st0" d="M11.3,26c-0.8-2.1,0.1-4.4,2.1-5.4c-2.8-0.6-5.6,1.2-6.2,4s1.2,5.6,4,6.2c2,0.4,4-0.3,5.2-2
	C14.3,29.3,12.1,28.1,11.3,26z"></path>
<path id="Path_3855" class="st1" d="M58.2,40.6c0,0-3.3-0.7-7.1-1.3s-8.2-1-8.2-1"></path>
<path id="Path_3856" class="st1" d="M1,40.6c0,0,3.3-0.7,7.2-1.3s8.3-1,8.3-1"></path>
<polygon class="st2" points="0.8,17.7 0.8,51.2 29.8,67.9 58.8,51.2 58.8,17.7 29.8,0.9 "></polygon>
<path class="st1" d="M8.4,55.5c2.3-1.4,4.1-1.8,5.5-1.8c2.5,0.1,3.1,1.8,5.3,1.8c2.3,0,3.2-1.8,5.4-1.8c2.2,0,2.9,1.7,5.2,1.8
	c2.3,0,3.2-1.7,5.6-1.7c2.3,0,3.1,1.7,5.4,1.7c2.2,0,2.8-1.6,5.3-1.7c1.3,0,3,0.4,5.3,1.7"></path>
<path class="st1" d="M16.5,60c2.8,0,3.9-1.8,6.7-1.8c2.7,0,3.7,1.7,6.5,1.8c2.8,0,4-1.7,6.9-1.7c2.9,0,3.9,1.7,6.7,1.7"></path>
<line class="st1" x1="29.8" y1="18.3" x2="29.8" y2="15.2"></line>
</svg>