<svg class="qodef-ei-svg-icon qodef--power" xmlns="http://www.w3.org/2000/svg" width="8.47mm" height="8.47mm" viewBox="0 0 24 24"><defs><style>.cls-1{fill:none;stroke:#3e3e3e;stroke-linecap:round;stroke-linejoin:round;}</style></defs><title>power</title><g><g><line class="cls-1" x1="16.6" y1="14.3" x2="16.6" y2="10.47"></line><line class="cls-1" x1="7.4" y1="14.3" x2="7.4" y2="10.47"></line><line class="cls-1" x1="16.6" y1="10.47" x2="7.4" y2="10.47"></line><line class="cls-1" x1="15.07" y1="10.47" x2="15.07" y2="5.87"></line><line class="cls-1" x1="8.93" y1="10.47" x2="8.93" y2="5.87"></line><path class="cls-1" d="M16.6,14.3a3.06,3.06,0,0,1-3.06,3.07h0"></path><path class="cls-1" d="M7.4,14.3a3.06,3.06,0,0,0,3.06,3.07h0"></path><line class="cls-1" x1="21.97" y1="0.5" x2="2.03" y2="0.5"></line><line class="cls-1" x1="0.5" y1="2.03" x2="0.5" y2="21.97"></line><line class="cls-1" x1="13.53" y1="23.5" x2="21.97" y2="23.5"></line><line class="cls-1" x1="23.5" y1="21.97" x2="23.5" y2="2.03"></line><path class="cls-1" d="M23.5,2A1.53,1.53,0,0,0,22,.5h0"></path><path class="cls-1" d="M.5,2A1.53,1.53,0,0,1,2,.5H2"></path><path class="cls-1" d="M23.5,22A1.53,1.53,0,0,1,22,23.5h0"></path><path class="cls-1" d="M.5,22A1.53,1.53,0,0,0,2,23.5H2"></path><line class="cls-1" x1="12" y1="21.97" x2="12" y2="17.37"></line><line class="cls-1" x1="2.03" y1="23.5" x2="8.17" y2="23.5"></line><path class="cls-1" d="M12,22a1.53,1.53,0,0,0,1.53,1.53h0"></path></g></g></svg>