<svg class="qodef-ei-svg-icon qodef--plate_cutlery" xmlns="http://www.w3.org/2000/svg" width="9.17mm" height="9.05mm" viewBox="0 0 26 25.66" xmlns:dc="http://purl.org/dc/elements/1.1/" xmlns:cc="http://creativecommons.org/ns#" xmlns:rdf="http://www.w3.org/1999/02/22-rdf-syntax-ns#" xmlns:svg="http://www.w3.org/2000/svg" stroke="rgb(62, 62, 62)" fill="none"><defs><style>.cls-1{fill:none;stroke:#3e3e3e;stroke-linecap:round;stroke-linejoin:round;}</style></defs><title>plate_cutlery</title><g><g><g><path class="cls-1" d="M13.35,14.92H.5s3.21.83,4.15,1.78"/><path class="cls-1" d="M17.05,18.28H.5s3.18.77,4.13,1.72"/><path class="cls-1" d="M16.11,21.64H.89s5.16.95,5.38,3.53H12"/><path class="cls-1" d="M7.72,12.86A7.72,7.72,0,0,1,6.13,7.92h6.62"/><path class="cls-1" d="M19.94,15.34c-1.89,0-5.55-.77-5.55-4.21S16.11.5,16.11.5h7.67S25.5,7.68,25.5,11.12,21.84,15.34,20,15.34"/><line class="cls-1" x1="19.94" y1="15.87" x2="19.94" y2="22.15"/><path class="cls-1" d="M19.94,21.16c0,2.28-5.12,4-5.12,4H25.07S20,23.44,20,21.16"/></g></g></g></svg>