<svg class="qodef-ei-svg-icon qodef--fridge" xmlns="http://www.w3.org/2000/svg" width="6.41mm" height="9.17mm" viewBox="0 0 18.17 26"><defs><style>.cls-1{fill:none;stroke:#3e3e3e;stroke-linecap:round;stroke-linejoin:round;}</style></defs><title>fridge</title><g><g><g><path class="cls-1" d="M.5,2.17A1.67,1.67,0,0,1,2.17.5"></path><path class="cls-1" d="M15.5,2.17A1.67,1.67,0,0,0,13.83.5h0"></path><path class="cls-1" d="M.5,23.83A1.67,1.67,0,0,0,2.17,25.5"></path><path class="cls-1" d="M15.5,23.83a1.67,1.67,0,0,1-1.67,1.67h0"></path><line class="cls-1" x1="0.5" y1="2.17" x2="0.5" y2="23.83"></line><line class="cls-1" x1="2.17" y1="25.5" x2="13.83" y2="25.5"></line><line class="cls-1" x1="2.17" y1="0.5" x2="13.83" y2="0.5"></line><line class="cls-1" x1="15.5" y1="10.5" x2="15.5" y2="15.5"></line><line class="cls-1" x1="17.67" y1="14.25" x2="13.34" y2="11.75"></line><line class="cls-1" x1="13.34" y1="14.25" x2="17.67" y2="11.75"></line><line class="cls-1" x1="15.5" y1="2.17" x2="15.5" y2="7.17"></line><line class="cls-1" x1="15.5" y1="23.83" x2="15.5" y2="18.83"></line><line class="cls-1" x1="3.83" y1="13.83" x2="3.83" y2="18.83"></line><line class="cls-1" x1="3.83" y1="7.17" x2="3.83" y2="3.83"></line><line class="cls-1" x1="0.5" y1="10.5" x2="10.5" y2="10.5"></line></g></g></g></svg>