<svg xmlns="http://www.w3.org/2000/svg" width="109.128" height="68.755" viewBox="0 0 109.128 68.755">
<path id="activity_bear" d="M265.462,171.674a34.31,34.31,0,0,0-8.693.051c-2.13.2-3.524.579-4.858-.2a7.859,7.859,0,0,0-7.982.118,5.042,5.042,0,0,1-2.365.511l-3.615.17-1.322-1.953c-.123-.2-1.124-.477-1.217-.335l-.832,2.239-2.315.438a1.42,1.42,0,0,0-.928.947l-.093.387c-.1.43-.538.636-.922.775l-3.214,1.059a.993.993,0,0,0-.623,1.061l.516,2.412c.087.336.241.437.629.64l3.36,1.178,1.735.931,5.5.779s4.858,2.33,5.36,4.341c.452,1.812-.894,8.919-1.163,10.3a.405.405,0,0,1-.308.3l-1.281.181c-.9.239-1.054,2.371-.394,2.371l4.18,0a1.683,1.683,0,0,0,1.832-1.331l2.587-9.01.911.111,3.938,6.965a.494.494,0,0,1-.164.591l-1.541.551c-.749.392-.371,1.992.205,2.126l4.823-.013c.688-.177,1.055-.562.973-1.243l-1.515-8.395,6.922.731c2.121,2.073,6.243,4.112,10.516,5.065.613.135,2.1.521,1.854,1.377l-.333,1.166c-.226,1.685,1.644,1.321,2.738,1.322,0,0,2.715-3.82,2.413-5.228s-2.213-1.006-2.513-3.821a19.741,19.741,0,0,1,.491-4.809c.239-1.268,1.593-.683,1.628-1.773.049-1.571-1.061-3.653-2.533-6.017a18.9,18.9,0,0,0-12.391-7.077Zm6.693,24.376-1.012,3.087a1.964,1.964,0,0,1-1.555,1.148l-5.478.017c-.555,0-.738-1.866.13-2.176a11.28,11.28,0,0,1,1.694-.394c.434-.072.376-.561.311-.722-.8-1.584-3.212-4.1-3.5-5.616m-29.924-16.785,1.634-.154m8.558,18.6-14.944,1.87-2.362,5.178-5.631,2.614-1.207,5.68-6.887,2.817-1.961,2.4m36.449-9.96-6.736.05-10.054,3.734-2.471,4.767-9.376,2.675m-1.009-16.436c-9.284,1.381-46.518,5.937-35.227,21.515,3.623,5,9.97,9.564,14.847,13.163m11.343-16.847c1.539,2.581,11.792,4.671,14.811,5.256a371.983,371.983,0,0,1,44.7,11.086,114.509,114.509,0,0,1,12,4.494m-8.1-29.683-24.92,2.785-5.725,3.733,3.056,4.769-6.275,2.675M199.085,198.48c-10.376,1.591-32.159,5.917-24.318,19.9m29.184-26.129v3.491m-8.018-5.913a14.283,14.283,0,0,0,8.018-5.588,14.278,14.278,0,0,0,8.019,5.588m-14.747-5.5a11.9,11.9,0,0,0,6.728-4.638,11.9,11.9,0,0,0,6.729,4.638m-12.559-5.088a10.784,10.784,0,0,0,5.83-4.3,10.787,10.787,0,0,0,5.83,4.3m-14.76,15.722c3.672-1.181,6.705-2.93,8.93-6.224,2.226,3.294,5.258,5.043,8.931,6.224m-31.176-7.083a8.872,8.872,0,0,0,4.8-3.542,8.876,8.876,0,0,0,4.8,3.542m-10.336,4.187c2.277-.732,4.158-1.465,5.538-3.508,1.38,2.043,3.261,2.776,5.538,3.508M179.9,196.6c2.714-.872,4.955-1.857,6.6-4.292,1.645,2.435,3.886,3.42,6.6,4.292m-6.6-.956V197.9" transform="translate(-172.386 -169.299)" fill="none" stroke="#446851" stroke-linecap="round" stroke-linejoin="round" stroke-miterlimit="22.926" stroke-width="1.417" fill-rule="evenodd"></path>
</svg>