<svg xmlns="http://www.w3.org/2000/svg" width="43.549" height="46.536" viewBox="0 0 43.549 46.536">
<g id="shower_bath" data-name="shower/bath" transform="translate(0.65 0.65)">
<g id="Group_18" data-name="Group 18" transform="translate(0 0)">
<line id="Line_19" data-name="Line 19" x2="17.105" transform="translate(18.606 23.379)" fill="none" stroke="#000" stroke-linecap="round" stroke-linejoin="round" stroke-width="1.3"></line>
<line id="Line_20" data-name="Line 20" x2="2.851" transform="translate(26.208 9.125)" fill="none" stroke="#000" stroke-linecap="round" stroke-linejoin="round" stroke-width="1.3"></line>
<path id="Path_30" data-name="Path 30" d="M2502,670h20.4a8.741,8.741,0,0,1,8.741,8.741V680.8a4.371,4.371,0,0,0,1.911,3.613l8.941,6.084a5.164,5.164,0,0,1,2.259,4.266v0a2.913,2.913,0,0,1-2.915,2.914h-27.679a2.913,2.913,0,0,1-2.915-2.914v0A5.165,5.165,0,0,1,2513,690.5l8.941-6.084a4.372,4.372,0,0,0,1.912-3.613v-1.33a3.643,3.643,0,0,0-3.643-3.642H2502" transform="translate(-2502 -670)" fill="none" stroke="#000" stroke-linecap="round" stroke-linejoin="round" stroke-width="1.3"></path>
<line id="Line_21" data-name="Line 21" x1="3.423" transform="translate(8.96 23.31)" fill="none" stroke="#000" stroke-linecap="round" stroke-linejoin="round" stroke-width="1.3"></line>
</g>
<g id="Group_19" data-name="Group 19" transform="translate(14.805 31.932)">
<line id="Line_22" data-name="Line 22" y2="5.702" transform="translate(0 0.95)" fill="none" stroke="#000" stroke-linecap="round" stroke-linejoin="round" stroke-width="1.3"></line>
<line id="Line_23" data-name="Line 23" y2="2.851" transform="translate(5.702 1.901)" fill="none" stroke="#000" stroke-linecap="round" stroke-linejoin="round" stroke-width="1.3"></line>
<line id="Line_24" data-name="Line 24" y2="0.95" transform="translate(10.453 0.95)" fill="none" stroke="#000" stroke-linecap="round" stroke-linejoin="round" stroke-width="1.3"></line>
<line id="Line_25" data-name="Line 25" y2="5.702" transform="translate(15.205 0)" fill="none" stroke="#000" stroke-linecap="round" stroke-linejoin="round" stroke-width="1.3"></line>
<line id="Line_26" data-name="Line 26" y2="0.95" transform="translate(20.907 1.901)" fill="none" stroke="#000" stroke-linecap="round" stroke-linejoin="round" stroke-width="1.3"></line>
<line id="Line_27" data-name="Line 27" y2="5.702" transform="translate(20.907 7.602)" fill="none" stroke="#000" stroke-linecap="round" stroke-linejoin="round" stroke-width="1.3"></line>
<line id="Line_28" data-name="Line 28" y2="0.95" transform="translate(15.205 9.503)" fill="none" stroke="#000" stroke-linecap="round" stroke-linejoin="round" stroke-width="1.3"></line>
<line id="Line_29" data-name="Line 29" y2="4.751" transform="translate(10.453 7.602)" fill="none" stroke="#000" stroke-linecap="round" stroke-linejoin="round" stroke-width="1.3"></line>
<line id="Line_30" data-name="Line 30" y2="2.851" transform="translate(5.702 9.503)" fill="none" stroke="#000" stroke-linecap="round" stroke-linejoin="round" stroke-width="1.3"></line>
<line id="Line_31" data-name="Line 31" y2="0.95" transform="translate(0 12.354)" fill="none" stroke="#000" stroke-linecap="round" stroke-linejoin="round" stroke-width="1.3"></line>
</g>
</g>
</svg>