<svg class="qodef-ei-svg-icon qodef--firepalce" xmlns="http://www.w3.org/2000/svg" width="6.7mm" height="9.16mm" viewBox="0 0 19 25.97"><defs><style>.cls-1,.cls-2{fill:none;stroke:#3e3e3e;stroke-linecap:round;}.cls-1{stroke-miterlimit:22.93;}.cls-2{stroke-linejoin:round;}</style></defs><title>firepalce</title><g><g><g><path class="cls-1" d="M18.5,25.47.5,17m10.83,3.38L18.5,17M.5,25.47l9-4.22"></path><g><path class="cls-2" d="M2.7,11.88a5.76,5.76,0,0,0,5.83,5.69h0"></path><path class="cls-2" d="M15.53,11.88A5.76,5.76,0,0,1,9.7,17.58h0"></path><path class="cls-2" d="M6.2,14.16c0,1.89,1.17,3.41,2.92,3.41"></path><path class="cls-2" d="M6.2,14.16a4.61,4.61,0,0,1,4.66-4.55h0"></path><path class="cls-2" d="M10.87,9.61C9.7,13,12,13,12,15.3"></path><path class="cls-2" d="M2.7,11.88C2.7,7.33,8.53,6.19,6.2.5"></path><path class="cls-2" d="M10.87,7.33C10.87,3.56,8.78.5,6.2.5"></path><path class="cls-2" d="M15.53,11.88c0-3.41-2.33-3.41-2.33-6.83"></path><path class="cls-2" d="M13.2,5.05C12,5.05,12,7.33,10.86,7.33"></path></g></g></g></g></svg>