<svg xmlns="http://www.w3.org/2000/svg" width="43.124" height="43.775" viewBox="0 0 43.124 43.775">
<g id="parking" transform="translate(0 0.65)">
<g id="Group_105" data-name="Group 105" transform="translate(0 0)">
<path id="Path_212" data-name="Path 212" d="M891.587,535.228h40.077a2.4,2.4,0,0,1,2.4,2.4h0a2.4,2.4,0,0,1-2.4,2.4H891.587" transform="translate(-891.587 -535.228)" fill="none" stroke="#000" stroke-miterlimit="22.926" stroke-width="1.3"></path>
<line id="Line_155" data-name="Line 155" y2="2.055" transform="translate(10.961 7.536)" fill="none" stroke="#000" stroke-miterlimit="22.926" stroke-width="1.3"></line>
<line id="Line_156" data-name="Line 156" y2="2.055" transform="translate(31.513 7.536)" fill="none" stroke="#000" stroke-miterlimit="22.926" stroke-width="1.3"></line>
</g>
<rect id="Rectangle_89" data-name="Rectangle 89" width="31.513" height="30.143" rx="3" transform="translate(5.481 12.332)" fill="none" stroke="#000" stroke-miterlimit="22.926" stroke-width="1.3"></rect>
<g id="Group_106" data-name="Group 106" transform="translate(15.071 17.812)">
<line id="Line_157" data-name="Line 157" y2="19.182" transform="translate(0)" fill="none" stroke="#000" stroke-miterlimit="22.926" stroke-width="1.3"></line>
<path id="Path_213" data-name="Path 213" d="M903.746,549.6h6.509a5.823,5.823,0,0,1,5.822,5.823h0a5.822,5.822,0,0,1-5.822,5.822h-6.509" transform="translate(-903.746 -549.598)" fill="none" stroke="#000" stroke-miterlimit="22.926" stroke-width="1.3"></path>
</g>
</g>
</svg>