<svg class="qodef-ei-svg-icon qodef--beddings" xmlns="http://www.w3.org/2000/svg" width="8.87mm" height="6.11mm" viewBox="0 0 25.15 17.33"><defs><style>.cls-1{fill:none;stroke:#3e3e3e;stroke-linecap:round;stroke-linejoin:round;}</style></defs><title>beddings</title><g><g><path class="cls-1" d="M23.1,10.46h0a1.55,1.55,0,1,1,0,3.09h0"></path><path class="cls-1" d="M5.33,13.55H23a1.64,1.64,0,1,1,0,3.28H3.69a3.19,3.19,0,0,1,0-6.38h0"></path><path class="cls-1" d="M19.82,7.22H2.14A1.67,1.67,0,0,1,.5,5.5,1.67,1.67,0,0,1,2.14,3.78H21.46a3.29,3.29,0,0,1,3.19,3.34,3.29,3.29,0,0,1-3.19,3.34H2.14A1.58,1.58,0,0,1,.51,8.88,1.62,1.62,0,0,1,2.14,7.22h0"></path><path class="cls-1" d="M5.33,3.78h0A1.63,1.63,0,0,1,3.69,2.14,1.63,1.63,0,0,1,5.33.5H19.82a1.63,1.63,0,0,1,1.64,1.64,1.63,1.63,0,0,1-1.64,1.64h0"></path><line class="cls-1" x1="3.69" y1="2.54" x2="3.69" y2="2.54"></line><line class="cls-1" x1="21.46" y1="2.54" x2="21.46" y2="2.54"></line></g></g></svg>