<svg class="qodef-ei-svg-icon qodef--tools" xmlns="http://www.w3.org/2000/svg" width="5.14mm" height="8.56mm" viewBox="0 0 14.58 24.27" xmlns:dc="http://purl.org/dc/elements/1.1/" xmlns:cc="http://creativecommons.org/ns#" xmlns:rdf="http://www.w3.org/1999/02/22-rdf-syntax-ns#" xmlns:svg="http://www.w3.org/2000/svg" stroke="rgb(62, 62, 62)" fill="none"><defs><style>.cls-1{fill:none;stroke:#3e3e3e;stroke-linecap:round;stroke-linejoin:round;}</style></defs><title>tools</title><g><g><g><path class="cls-1" d="M6.21,2.79C4,2.75,3,2.79,3,2.79L.5,2.84V6.92S1.62,6.75,3,6.68a15.54,15.54,0,0,1,2.81.07,5.59,5.59,0,0,1,.83.17c2,.61,4.91,4.07,5.75,4.14S13.95,8.68,14,5.63s.07-3.72.07-3.72S8,2.83,6.21,2.79Z"/><path class="cls-1" d="M3,2.79v-1A1.31,1.31,0,0,1,4.29.5h.18A1.31,1.31,0,0,1,5.78,1.81v.92"/><path class="cls-1" d="M3,6.68V22.46a1.31,1.31,0,0,0,1.31,1.31h.18a1.31,1.31,0,0,0,1.31-1.31h0V6.74"/></g></g></g></svg>