<svg class="qodef-ei-svg-icon qodef--wifi" xmlns="http://www.w3.org/2000/svg" width="8.68mm" height="6.99mm" viewBox="0 0 24.61 19.82"><defs><style>.cls-1{fill:none;stroke:#3e3e3e;stroke-linecap:round;stroke-linejoin:round;}</style></defs><title>wifi</title><g><g><g><circle class="cls-1" cx="12.32" cy="16.82" r="2.5"></circle><path class="cls-1" d="M19.72,10.16h0a11.53,11.53,0,0,0-14.78,0h0a1.48,1.48,0,0,0,0,2.3,2,2,0,0,0,2.59,0,7.28,7.28,0,0,1,4.79-1.73h0a7.29,7.29,0,0,1,4.79,1.73,2,2,0,0,0,2.59,0,1.48,1.48,0,0,0,0-2.3Z"></path><path class="cls-1" d="M23.6,4.87h0A16.66,16.66,0,0,0,12.31.5h0A16.66,16.66,0,0,0,1,4.86H1A1.53,1.53,0,0,0,.88,7L1,7.18a1.79,1.79,0,0,0,2.47,0,13.05,13.05,0,0,1,17.59,0,1.79,1.79,0,0,0,2.47,0A1.53,1.53,0,0,0,23.75,5Z"></path></g></g></g></svg>