<svg class="qodef-ei-svg-icon qodef--access" xmlns="http://www.w3.org/2000/svg" width="6.25mm" height="8.37mm" viewBox="0 0 17.72 23.72" xmlns:dc="http://purl.org/dc/elements/1.1/" xmlns:cc="http://creativecommons.org/ns#" xmlns:rdf="http://www.w3.org/1999/02/22-rdf-syntax-ns#" xmlns:svg="http://www.w3.org/2000/svg" stroke="rgb(52, 94, 65)" fill="none"><defs><style>.cls-1{fill:none;stroke:#3e3e3e;stroke-linecap:round;stroke-linejoin:round;}</style></defs><title>access</title><g><g><circle class="cls-1" cx="7.32" cy="3.5" r="3"/><path class="cls-1" d="M12.62,17.6a6,6,0,0,1-6.5,5.6,6,6,0,0,1-5.6-6.5,6.12,6.12,0,0,1,3.8-5.2"/><path class="cls-1" d="M11.12,14.1a6.12,6.12,0,0,1,6.1,6.1h0v1.5a1.5,1.5,0,0,1-3,0h0V20.2a3,3,0,0,0-3-3H7.32a3,3,0,0,1-3-3h0V9.6a3,3,0,1,1,6,0h0v1.5h3.8a1.5,1.5,0,0,1,0,3h-6"/></g></g></svg>