<svg xmlns="http://www.w3.org/2000/svg" width="115.883" height="86.629" viewBox="0 0 115.883 86.629">
<path id="activity_duck" d="M57.5,218.575a8.065,8.065,0,0,0,3-.951,3.885,3.885,0,0,1,4.581.26,20.907,20.907,0,0,0,9.278,3.259c4.361.5,8.473.258,9.962-1.67s-.455-6.864.05-10.642,8.009-15.61,13.231-17.88c3.143,1.678,3.967,5.448,4.092,8.575.2,5.119-2.7,9.557-1.076,13.592a10.84,10.84,0,0,1-1.506,10.216c-1.14,1.788.453,2.333.931,2.751,2.149,1.264,10.162,5.193,12.774,5.629,2.872.48.136,3.193-1.56,3.283s-11.837.965-19.033-.4-16.864-6.574-18.533-8.037-5.008-3.806-6.659-4.166a25.506,25.506,0,0,0-2.55-.448,14.162,14.162,0,0,1-3.209-.026c-1.169-.2-4.1-.88-5.452-1.263-2.834-.8.6-1.947,1.678-2.082Zm56.526,20.7q1.189.279,2.365.605m.931.271c11.524,3.48,8.95,7.9-5.731,9.789-4.266.562-8.721,1.192-11.847,1.945-4.209.98-3.646,3.338-.285,4.35,6.073,1.921,18.132,3.333,26.847,5.116,12.955,2.654,14.636,7.6-1.033,10.058-15.8,2.487-91.833,10.488-101.752-2.776-4.772-6.382,4.018-9.625,9.915-12.58,8.106-4.034,2.543-6.026-2.061-9.539-3.909-2.98-3.787-5.9,4.37-7.972,5.387-1.367,13.495-2.111,22.616-2.389m2.285-.057c2.36-.051,4.775-.074,7.219-.068m2.691.015c1.471.015,2.948.028,4.42.053m.475,21.368c-2.032,2.294-7.219,2.294-9.253,0-2.032,2.294-7.219,2.294-9.251,0-2.034,2.294-7.221,2.294-9.253,0m18.1,6.241c-2.032,2.294-7.219,2.294-9.253,0C54.5,266,49.316,266,47.284,263.7c-2.035,2.294-7.221,2.294-9.253,0m28.353-12.482c-2.034,2.294-7.221,2.294-9.253,0M39.776,232.079a19.994,19.994,0,1,1,33.53-17.831" transform="translate(-21.388 -190.201)" fill="none" stroke="#446851" stroke-linecap="round" stroke-linejoin="round" stroke-miterlimit="22.926" stroke-width="1.5" fill-rule="evenodd"></path>
</svg>