<svg class="qodef-ei-svg-icon qodef--camper" xmlns="http://www.w3.org/2000/svg" width="9.91mm" height="4.77mm" viewBox="0 0 28.1 13.53" xmlns:dc="http://purl.org/dc/elements/1.1/" xmlns:cc="http://creativecommons.org/ns#" xmlns:rdf="http://www.w3.org/1999/02/22-rdf-syntax-ns#" xmlns:svg="http://www.w3.org/2000/svg" stroke="rgb(52, 94, 65)" fill="none"><defs><style>.cls-1{fill:none;stroke:#3e3e3e;stroke-linecap:round;stroke-linejoin:round;}</style></defs><title>camper</title><g><g><path class="cls-1" d="M10.75,4H6.83a.31.31,0,0,0-.29.29V6.5a.31.31,0,0,0,.29.29h3.92A.31.31,0,0,0,11,6.5V4.24A.29.29,0,0,0,10.75,4ZM4.29,3.67H2.41a.22.22,0,0,0-.2.23V5.52a.2.2,0,0,0,.19.2H4.29a.2.2,0,0,0,.2-.19h0V3.9a.21.21,0,0,0-.18-.23Zm21,3.27-3.92-.12a.63.63,0,0,1-.44-.32l-.41-1.77c0-.15,0-.2.15-.2l2.41,0m1.07,5.11a1.68,1.68,0,1,1-1.68,1.68A1.68,1.68,0,0,1,24.12,9.67Zm-16.21,0a1.68,1.68,0,1,1-1.69,1.68A1.68,1.68,0,0,1,7.91,9.67Zm14-6.33a19.56,19.56,0,0,1,3.31,3.61l.2.12a5.88,5.88,0,0,1,1.57.7.77.77,0,0,1,.29.41,7,7,0,0,1,.2,3.1.53.53,0,0,1-.47.41l-1.28.12h0m-3.25,0c-4.3,0-8.63,0-13,0m-3.22,0H1.37a.82.82,0,0,1-.87-.78v0l0-9c0-.41.17-.64.58-.64H12.29a5.74,5.74,0,0,0,1-.12L15.14.7A6.47,6.47,0,0,1,16.8.5h3.92c1.54,0,2.09.64,3.08,1.59.14.19.27.2.17.64a.42.42,0,0,1-.26.17H17.84"/><rect class="cls-1" x="12.94" y="3.67" width="3.03" height="8.12"/></g></g></svg>