<svg xmlns="http://www.w3.org/2000/svg" width="41.568" height="41.568" viewBox="0 0 41.568 41.568">
<g id="electricity" transform="translate(0.65 0.65)">
<path id="Path_21" data-name="Path 21" d="M1608.134,732.268a20.134,20.134,0,1,1,20.134-20.134,19.736,19.736,0,0,1-10.817,17.945,6.476,6.476,0,0,1-9.317-5.851v-1.7" transform="translate(-1588 -692)" fill="none" stroke="#000" stroke-linecap="round" stroke-linejoin="round" stroke-width="1.3"></path>
<g id="Group_17" data-name="Group 17" transform="translate(11.041 8.443)">
<path id="Path_22" data-name="Path 22" d="M1668,800v6.495a6.5,6.5,0,0,0,6.495,6.495h1.3a6.5,6.5,0,0,0,6.495-6.495V800" transform="translate(-1666.052 -790.907)" fill="none" stroke="#000" stroke-linecap="round" stroke-linejoin="round" stroke-width="1.3"></path>
<path id="Path_23" data-name="Path 23" d="M1656,753.093h3.9v-7.469a1.624,1.624,0,0,1,3.248,0v7.469h3.9v-7.469a1.624,1.624,0,0,1,3.247,0v7.469h3.9" transform="translate(-1656 -744)" fill="none" stroke="#000" stroke-linecap="round" stroke-linejoin="round" stroke-width="1.3"></path>
</g>
</g>
</svg>