<svg xmlns="http://www.w3.org/2000/svg" width="121.867" height="57.467" viewBox="0 0 121.867 57.467">
<path id="camper" d="M92.674,3.882H81.1a.607.607,0,0,0-.643.642V9.531a.607.607,0,0,0,.643.642H92.674a.607.607,0,0,0,.643-.642V4.524c.129-.385-.257-.642-.643-.642Zm-46.566,12.2H28.742a1.382,1.382,0,0,0-1.286,1.284V27.378a1.382,1.382,0,0,0,1.286,1.284H46.108a1.382,1.382,0,0,0,1.286-1.284V17.363a1.288,1.288,0,0,0-1.286-1.284Zm10.548,0h8.1a2.252,2.252,0,0,1,2.187,2.183V45.225a2.252,2.252,0,0,1-2.187,2.183h-8.1a2.252,2.252,0,0,1-2.187-2.183V18.262a2.252,2.252,0,0,1,2.187-2.183ZM17.808,10.815H5.074a.993.993,0,0,0-.9,1.027v7.19a.878.878,0,0,0,.9.9H17.808a.878.878,0,0,0,.9-.9v-7.19a.91.91,0,0,0-.9-1.027Zm93,18.489-17.88-.514A2.785,2.785,0,0,1,91,27.378l-1.8-7.832c-.129-.642.129-.9.643-.9l10.677.128m4.759,22.6a7.447,7.447,0,1,1-7.461,7.447,7.459,7.459,0,0,1,7.461-7.447Zm-71.778,0a7.447,7.447,0,1,1-7.461,7.447A7.459,7.459,0,0,1,33.5,41.373ZM95.89,14.924A76.306,76.306,0,0,1,110.3,29.3l.9.514a26.033,26.033,0,0,1,6.946,3.082,3.421,3.421,0,0,1,1.286,1.8c1.672,4.751,1.286,8.731.9,13.738a2.339,2.339,0,0,1-2.058,1.8l-5.66.514h-.129m-14.407.128c-19.038.128-38.2.128-57.371,0M26.427,51H4.559C2.5,50.875.7,49.719.7,47.408L.829,7.348c0-1.8.772-2.825,2.573-2.825H52.926a25.42,25.42,0,0,0,4.5-.514l8.1-2.311A28.663,28.663,0,0,1,72.864.8H90.23c6.818,0,9.262,2.825,13.635,7.062,1.672,1.541,2.187,4.494.772,6.163a1.873,1.873,0,0,1-1.158.77H77.495" transform="translate(0.3 0.2)" fill="none" stroke="#446851" stroke-linecap="round" stroke-miterlimit="22.926" stroke-width="2" fill-rule="evenodd"></path>
</svg>