<svg class="qodef-ei-svg-icon qodef--bicycle" xmlns="http://www.w3.org/2000/svg" width="9.17mm" height="5.68mm" viewBox="0 0 26 16.11" xmlns:dc="http://purl.org/dc/elements/1.1/" xmlns:cc="http://creativecommons.org/ns#" xmlns:rdf="http://www.w3.org/1999/02/22-rdf-syntax-ns#" xmlns:svg="http://www.w3.org/2000/svg" stroke="rgb(62, 62, 62)" fill="none"><defs><style>.cls-1,.cls-2{fill:none;stroke:#3e3e3e;stroke-linejoin:round;}.cls-1{stroke-linecap:round;}.cls-2{stroke-linecap:square;}</style></defs><title>bicycle</title><g><g><g><path class="cls-1" d="M10.89.5A10.53,10.53,0,0,0,8.69,2C8,2.71,6.12,2.34,5.75.5Z"/><path class="cls-1" d="M15.61.5H20a1.6,1.6,0,0,1,1.59,1.59h0A1.6,1.6,0,0,1,20,3.68"/><circle class="cls-1" cx="21" cy="11.11" r="4.5"/><circle class="cls-1" cx="5" cy="11.11" r="4.5"/><ellipse class="cls-1" cx="12.5" cy="11.11" rx="1" ry="1.5"/><path class="cls-1" d="M10.84,11.23h-6L9.25,4.48H18L13.62,9.64"/><line class="cls-2" x1="8.5" y1="2.61" x2="12" y2="9.11"/><line class="cls-1" x1="16.5" y1="0.61" x2="20.5" y2="10.61"/></g></g></g></svg>