<svg class="qodef-ei-svg-icon qodef--double_bed" xmlns="http://www.w3.org/2000/svg" width="9.17mm" height="6.24mm" viewBox="0 0 26 17.7"><defs><style>.cls-1{fill:none;stroke:#3e3e3e;stroke-linecap:round;stroke-linejoin:round;}</style></defs><title>double_bed</title><g><g><path class="cls-1" d="M23.8,8.8V2.2A1.69,1.69,0,0,0,22.1.5H3.8A1.69,1.69,0,0,0,2.1,2.2V8.9"></path><path class="cls-1" d="M23.8,8.8H2.2A1.69,1.69,0,0,0,.5,10.5v5h25v-5a1.69,1.69,0,0,0-1.7-1.7Z"></path><line class="cls-1" x1="2.2" y1="15.5" x2="2.2" y2="17.2"></line><line class="cls-1" x1="23.8" y1="15.5" x2="23.8" y2="17.2"></line><polyline class="cls-1" points="5.1 8.8 5.1 3.8 11.8 3.8 11.8 8.8"></polyline><polyline class="cls-1" points="14.3 8.8 14.3 3.8 20.9 3.8 20.9 8.8"></polyline></g></g></svg>