<svg xmlns="http://www.w3.org/2000/svg" width="13.596" height="10.553" viewBox="0 0 13.596 10.553"><g transform="translate(0.506 -6.618)"><g transform="translate(0 7.018)"><g transform="translate(2.874 4.105)"><path d="M1649.49,410c-.205.616-2.053,3.284-3.49,3.9h.205a.821.821,0,0,1,0,1.642c2.874,0,3.284-4.516,3.284-4.516" transform="translate(-1646 -410)" fill="none" stroke="#345e41" stroke-linecap="round" stroke-linejoin="round" stroke-width="0.8"></path></g><path d="M1612.053,339.648h-1.437l-.616-1.642s4.516-5.747,5.337-8.005c.821,2.258,5.337,8.005,5.337,8.005l-.616,1.642h-4.721v-5.542" transform="translate(-1608.974 -330)" fill="none" stroke="#345e41" stroke-linecap="round" stroke-linejoin="round" stroke-width="0.8"></path><g transform="translate(0 7.976)"><line x2="0.418" y2="1.254" transform="translate(0 0.418)" fill="none" stroke="#345e41" stroke-linecap="round" stroke-linejoin="round" stroke-width="0.8"></line><line x1="0.418" y2="1.254" transform="translate(0.418 0)" fill="none" stroke="#345e41" stroke-linecap="round" stroke-linejoin="round" stroke-width="0.8"></line></g><g transform="translate(11.699 7.976)"><line y1="1.254" transform="translate(0.836 0.418)" fill="none" stroke="#345e41" stroke-linecap="round" stroke-linejoin="round" stroke-width="0.8"></line><line x2="0.836" y2="1.254" transform="translate(0 0)" fill="none" stroke="#345e41" stroke-linecap="round" stroke-linejoin="round" stroke-width="0.8"></line></g></g></g></svg>