<svg class="qodef-ei-svg-icon qodef--trailer" xmlns="http://www.w3.org/2000/svg" width="9.85mm" height="6.08mm" viewBox="0 0 27.93 17.23"><defs><style>.cls-1{fill:none;stroke:#3e3e3e;stroke-linecap:round;stroke-linejoin:round;}</style></defs><title>trailer</title><g><g><path class="cls-1" d="M10.29,3.78h5.4c.15,0,.28.18.28.39V7.07c0,.22-.13.39-.28.39h-5.4c-.15,0-.28-.18-.28-.39V4.17C10,4,10.14,3.78,10.29,3.78Zm-6.75,0h3.6A.78.78,0,0,1,8,4.51v8.26a.79.79,0,0,1-.82.73H3.53a.78.78,0,0,1-.82-.73V4.51a.78.78,0,0,1,.82-.73Zm8.59,7.46A2.77,2.77,0,0,1,14.89,14h0c0,3.64-5.53,3.64-5.53,0a2.77,2.77,0,0,1,2.77-2.77ZM9.43,14.69H1.53c-.76,0-1-.5-1-1.13V7.87C.52,3.64,1,1.18,5,.68A32.53,32.53,0,0,1,14.33,1c5.08.94,9.41,3.86,9.41,10.72v2.93H14.81m8.93,0h3.69V13.41"></path></g></g></svg>