<svg xmlns="http://www.w3.org/2000/svg" width="42.685" height="37.011" viewBox="0 0 42.685 37.011">
<g id="wifi" transform="translate(0.843 0.65)">
<circle id="Ellipse_1" data-name="Ellipse 1" cx="4.745" cy="4.745" r="4.745" transform="translate(15.78 26.221)" fill="none" stroke="#000" stroke-linecap="round" stroke-linejoin="round" stroke-width="1.3"></circle>
<path id="Path_55" data-name="Path 55" d="M2111.831,1571.108l-.026-.027a17.306,17.306,0,0,0-24.5,0l-.026.027a3.079,3.079,0,0,0,.032,4.37,2.942,2.942,0,0,0,4.3.076,11.2,11.2,0,0,1,7.938-3.283h.015a11.2,11.2,0,0,1,7.938,3.283,2.942,2.942,0,0,0,4.3-.076A3.079,3.079,0,0,0,2111.831,1571.108Z" transform="translate(-2079.048 -1552.774)" fill="none" stroke="#000" stroke-linecap="round" stroke-linejoin="round" stroke-width="1.3"></path>
<path id="Path_56" data-name="Path 56" d="M2082.1,1494.3l-.017-.019a27.605,27.605,0,0,0-19.579-8.277h-.014a27.607,27.607,0,0,0-19.579,8.277l-.017.019a3.08,3.08,0,0,0,.035,4.38,2.933,2.933,0,0,0,4.292.066,21.271,21.271,0,0,1,30.552,0,2.933,2.933,0,0,0,4.292-.066A3.08,3.08,0,0,0,2082.1,1494.3Z" transform="translate(-2042 -1485.999)" fill="none" stroke="#000" stroke-linecap="round" stroke-linejoin="round" stroke-width="1.3"></path>
</g>
</svg>