<svg xmlns="http://www.w3.org/2000/svg" width="79.775" height="90.141" viewBox="0 0 79.775 90.141" xmlns:dc="http://purl.org/dc/elements/1.1/" xmlns:cc="http://creativecommons.org/ns#" xmlns:rdf="http://www.w3.org/1999/02/22-rdf-syntax-ns#" xmlns:svg="http://www.w3.org/2000/svg" stroke="rgb(72, 72, 72)" fill="rgb(0, 0, 0)">
<path id="activity_climb" d="M363.86,38.36a5.037,5.037,0,0,0,.122-2.1c-.673-3.932-9.3-7.3-11.611-2.24-.657,1.444-1.547,5.135-1.267,6.792a6.926,6.926,0,0,0,3.538,4.629c2.378,1.171,4.837.985,6.533-1.274a20.848,20.848,0,0,0,2.686-5.8ZM375.676,23.9V48.845m.037,6.174-19.86,9.067M345.418,76.554v36.775m34.883,0v-8.792L389.8,92.432l-2.786-6.789,11.363-19.855L392.794,24.68h20.649v88.649ZM375.553,55.1l2.3-1.1c.834-.237.457-5.038.287-5.143a1.7,1.7,0,0,0-1.079-.374c-.258.093-11.925,5.128-11.925,5.128s-8-7.33-12.221-8.563-7.338.43-10.193,2.468-6.946,7.619-7.608,9.647,8.315,6.925,8.315,6.925m12.419-8.421L355.4,67.274l.412.267,10.46-3.807a2.012,2.012,0,0,1,1.963.407l15.91,14.026c1.638,2.171-1.488,6.138-3.286,5.937L366.448,73.28l-.786-.145c-2.195,1.071-9.611,4.871-13.205,6.1-4.306,1.475-8.689-3.286-8.626-7.125-.444-5.038-.507-13.775-.517-16.07l-.357-.206-1.325,1.324m21.525,3.462L352.68,54.182m6.6,22.092,7.658,5.043a5.277,5.277,0,0,1,2.026,2.188l9.1,14.041c1.778,3.565-3.3,6.354-4.845,4.615L364.3,88.936l-14.51-9.524" transform="translate(-334.376 -23.897)" fill="none" stroke="#345e41" stroke-miterlimit="22.926" stroke-width="1.417" fill-rule="evenodd"/>
</svg>