<svg xmlns="http://www.w3.org/2000/svg" width="36.3" height="48.813" viewBox="0 0 36.3 48.813">
<g id="laundry_service" data-name="laundry service" transform="translate(0.699 0.65)">
<g id="Group_23" data-name="Group 23" transform="translate(5.161 13.869)">
<line id="Line_37" data-name="Line 37" x2="8" transform="translate(16.79 -0.356)" fill="none" stroke="#000" stroke-linecap="round" stroke-linejoin="round" stroke-width="1.3"></line>
<g id="Group_22" data-name="Group 22" transform="translate(0)">
<line id="Line_38" data-name="Line 38" x2="3" transform="translate(-0.21 -0.356)" fill="none" stroke="#000" stroke-linecap="round" stroke-linejoin="round" stroke-width="1.3"></line>
<line id="Line_39" data-name="Line 39" x2="2" transform="translate(6.79 -0.356)" fill="none" stroke="#000" stroke-linecap="round" stroke-linejoin="round" stroke-width="1.3"></line>
</g>
</g>
<rect id="Rectangle_23" data-name="Rectangle 23" width="35" height="40" rx="3" transform="translate(-0.049 7.513)" fill="none" stroke="#000" stroke-linecap="round" stroke-linejoin="round" stroke-width="1.3"></rect>
<path id="Path_39" data-name="Path 39" d="M1664.132,1175.033a10.736,10.736,0,1,1-4.208,3.567" transform="translate(-1651.344 -1154.07)" fill="none" stroke="#000" stroke-linecap="round" stroke-linejoin="round" stroke-width="1.3"></path>
<path id="Path_40" data-name="Path 40" d="M1682,1204.132a6.132,6.132,0,0,1,6.132-6.132" transform="translate(-1670.744 -1173.471)" fill="none" stroke="#000" stroke-linecap="round" stroke-linejoin="round" stroke-width="1.3"></path>
<path id="Path_41" data-name="Path 41" d="M1720.132,1230a6.132,6.132,0,0,1-6.132,6.132" transform="translate(-1696.612 -1199.339)" fill="none" stroke="#000" stroke-linecap="round" stroke-linejoin="round" stroke-width="1.3"></path>
<path id="Path_42" data-name="Path 42" d="M1655.414,1093.833h-11.5a1.922,1.922,0,0,1-1.916-1.916h0a1.922,1.922,0,0,1,1.916-1.916h11.5a1.922,1.922,0,0,1,1.916,1.916h0A1.922,1.922,0,0,1,1655.414,1093.833Z" transform="translate(-1638.41 -1086.167)" fill="none" stroke="#000" stroke-linecap="round" stroke-linejoin="round" stroke-width="1.3"></path>
<path id="Path_43" data-name="Path 43" d="M1655.414,1073.833h-11.5a1.922,1.922,0,0,1-1.916-1.916h0a1.922,1.922,0,0,1,1.916-1.916h11.5a1.922,1.922,0,0,1,1.916,1.916h0A1.922,1.922,0,0,1,1655.414,1073.833Z" transform="translate(-1638.41 -1070)" fill="none" stroke="#000" stroke-linecap="round" stroke-linejoin="round" stroke-width="1.3"></path>
</g>
</svg>