<svg class="qodef-ei-svg-icon qodef--towels" xmlns="http://www.w3.org/2000/svg" width="9.17mm" height="9.17mm" viewBox="0 0 26 26" xmlns:dc="http://purl.org/dc/elements/1.1/" xmlns:cc="http://creativecommons.org/ns#" xmlns:rdf="http://www.w3.org/1999/02/22-rdf-syntax-ns#" xmlns:svg="http://www.w3.org/2000/svg" stroke="rgb(62, 62, 62)" fill="none"><defs><style>.cls-1{fill:none;stroke:#3e3e3e;stroke-linecap:round;stroke-linejoin:round;}</style></defs><title>towels</title><g><g><g><line class="cls-1" x1="3" y1="3" x2="3" y2="25.5"/><line class="cls-1" x1="18" y1="25.5" x2="3" y2="25.5"/><line class="cls-1" x1="18" y1="3" x2="18" y2="25.5"/><line class="cls-1" x1="5.05" y1="0.5" x2="20.95" y2="0.5"/><line class="cls-1" x1="23" y1="3.83" x2="23" y2="20.5"/><line class="cls-1" x1="18" y1="20.5" x2="23" y2="20.5"/><line class="cls-1" x1="0.5" y1="3" x2="3" y2="3"/><line class="cls-1" x1="18" y1="3" x2="25.5" y2="3"/><line class="cls-1" x1="3" y1="22.17" x2="18" y2="22.17"/><line class="cls-1" x1="23" y1="17.17" x2="18" y2="17.17"/><path class="cls-1" d="M18,3a2.5,2.5,0,0,1,5,0"/><path class="cls-1" d="M3,3A2.5,2.5,0,0,1,5.5.5"/></g></g></g></svg>