<svg class="qodef-ei-svg-icon qodef--barbeque" xmlns="http://www.w3.org/2000/svg" width="8.15mm" height="8.77mm" viewBox="0 0 23.09 24.86" xmlns:dc="http://purl.org/dc/elements/1.1/" xmlns:cc="http://creativecommons.org/ns#" xmlns:rdf="http://www.w3.org/1999/02/22-rdf-syntax-ns#" xmlns:svg="http://www.w3.org/2000/svg" stroke="rgb(62, 62, 62)" fill="none"><defs><style>.cls-1{fill:none;stroke:#3e3e3e;stroke-linecap:round;stroke-linejoin:round;}</style></defs><title>barbeque</title><g><g><g><g><path class="cls-1" d="M14.51,7.43a.77.77,0,0,0-.77-.77H9.31A1.35,1.35,0,0,1,8,5.31H8A1.35,1.35,0,0,1,9.31,4H8.16A1.74,1.74,0,0,1,6.43,2.23h0A1.74,1.74,0,0,1,8.16.5"/><path class="cls-1" d="M10.66,2h1.15a1.54,1.54,0,0,1,1.54,1.54h0a1.54,1.54,0,0,1-1.54,1.54h2.69A1.93,1.93,0,0,1,16.43,7"/></g><g><g><line class="cls-1" x1="15.66" y1="18.59" x2="16.49" y2="20.65"/><line class="cls-1" x1="7.03" y1="18.84" x2="5.02" y2="24.36"/><circle class="cls-1" cx="17.32" cy="22.6" r="1.76"/><line class="cls-1" x1="15.56" y1="22.35" x2="6" y2="22.35"/></g><g><path class="cls-1" d="M2.58,9a8.85,8.85,0,1,0,17.7.27q0-.13,0-.27"/><line class="cls-1" x1="2.01" y1="9.3" x2="21.08" y2="9.3"/></g><g><g><ellipse class="cls-1" cx="0.75" cy="11.31" rx="0.25" ry="0.5"/><line class="cls-1" x1="2.89" y1="11.28" x2="0.66" y2="11.28"/></g><g><line class="cls-1" x1="22.21" y1="11.28" x2="19.98" y2="11.28"/><ellipse class="cls-1" cx="22.34" cy="11.31" rx="0.25" ry="0.5"/></g></g></g></g></g></g></svg>