<svg class="qodef-ei-svg-icon qodef--tap_water" xmlns="http://www.w3.org/2000/svg" width="8.2mm" height="8.74mm" viewBox="0 0 23.24 24.78" xmlns:dc="http://purl.org/dc/elements/1.1/" xmlns:cc="http://creativecommons.org/ns#" xmlns:rdf="http://www.w3.org/1999/02/22-rdf-syntax-ns#" xmlns:svg="http://www.w3.org/2000/svg" stroke="rgb(52, 94, 65)" fill="none"><defs><style>.cls-1{fill:none;stroke:#3e3e3e;stroke-linecap:round;stroke-linejoin:round;}</style></defs><title>tap_water</title><g><g><g><g><g><path class="cls-1" d="M13.15,4.72V4a.77.77,0,0,1,.77-.77h.84a2.42,2.42,0,0,1,1.68.62,1.92,1.92,0,1,0,0-2.79,2.32,2.32,0,0,1-1.58.63h-.95a.76.76,0,0,1-.55-.23A1.64,1.64,0,0,0,12.21.88H11.8a1.64,1.64,0,0,0-1.16.54.76.76,0,0,1-.55.23H9.24A2.42,2.42,0,0,1,7.57,1a1.92,1.92,0,1,0,0,2.79,2.32,2.32,0,0,1,1.58-.63H10a.8.8,0,0,1,.89.71v.83"/></g><g><g><path class="cls-1" d="M22.74,14.69H20.82a1.53,1.53,0,0,1-1.53-1.53h0V12h-4a3.83,3.83,0,0,1-6.64,0H6.25a1.53,1.53,0,0,0-1.53,1.53h0v.77l.54.54a.77.77,0,0,1,.22.54v1.22A.38.38,0,0,1,5.1,17H.88a.38.38,0,0,1-.38-.38h0V15.39a.77.77,0,0,1,.22-.54l.54-.54V13.16a5,5,0,0,1,5-5h2.3a3.82,3.82,0,0,1,1.8-1.92h3.3a3.82,3.82,0,0,1,1.8,1.92h3.83V7a1.53,1.53,0,0,1,1.53-1.53h1.92Z"/></g><line class="cls-1" x1="3.71" y1="14.26" x2="4.71" y2="14.26"/><line class="cls-1" x1="19.22" y1="10.76" x2="19.22" y2="12.26"/></g></g><path class="cls-1" d="M5.1,22.17a2.11,2.11,0,0,1-4.22,0h0C.88,20.83,3,18.52,3,18.52S5.1,20.83,5.1,22.17Z"/></g></g></g></svg>