<svg class="qodef-ei-svg-icon qodef--garder_fur" xmlns="http://www.w3.org/2000/svg" width="8.85mm" height="4.74mm" viewBox="0 0 25.09 13.43" xmlns:dc="http://purl.org/dc/elements/1.1/" xmlns:cc="http://creativecommons.org/ns#" xmlns:rdf="http://www.w3.org/1999/02/22-rdf-syntax-ns#" xmlns:svg="http://www.w3.org/2000/svg" stroke="rgb(62, 62, 62)" fill="none"><defs><style>.cls-1{fill:none;stroke:#3e3e3e;stroke-linecap:round;stroke-linejoin:round;}</style></defs><title>garder_fur</title><g><g><g><g><path class="cls-1" d="M.5.5s.59,9.32,7.09,12.43"/><path class="cls-1" d="M4.23,10.3A10.23,10.23,0,0,0,7,6.25"/><path class="cls-1" d="M.5,12.93A34,34,0,0,0,4.34,10.3"/><line class="cls-1" x1="4.5" y1="5.93" x2="7.5" y2="5.93"/></g><g><path class="cls-1" d="M24.59.5S24,9.82,17.5,12.93"/><path class="cls-1" d="M20.86,10.3a10.78,10.78,0,0,1-2.76-4.05"/><path class="cls-1" d="M24.59,12.93a32.74,32.74,0,0,1-3.73-2.63"/><line class="cls-1" x1="21.5" y1="5.93" x2="17.5" y2="5.93"/></g><line class="cls-1" x1="12.52" y1="2.94" x2="12.52" y2="11.64"/><path class="cls-1" d="M9.76,12.93c0-.64,1.28-1.17,2.86-1.17s2.86.52,2.86,1.17"/><path d="M6.72,3.41h0c0-.32.52-.57,1.17-.57H17.6c.64,0,1.17.26,1.17.57h0"/></g></g></g></svg>