<svg class="qodef-ei-svg-icon qodef--kettle" xmlns="http://www.w3.org/2000/svg" width="8.11mm" height="8.11mm" viewBox="0 0 23 23" xmlns:dc="http://purl.org/dc/elements/1.1/" xmlns:cc="http://creativecommons.org/ns#" xmlns:rdf="http://www.w3.org/1999/02/22-rdf-syntax-ns#" xmlns:svg="http://www.w3.org/2000/svg" stroke="rgb(62, 62, 62)" fill="none"><defs><style>.cls-1{fill:none;stroke:#3e3e3e;stroke-linecap:round;stroke-linejoin:round;}</style></defs><title>kettle</title><g><g><g><line class="cls-1" x1="1.23" y1="22.5" x2="18.83" y2="22.5"/><line class="cls-1" x1="1.97" y1="19.57" x2="18.1" y2="19.57"/><line class="cls-1" x1="1.97" y1="19.57" x2="1.97" y2="15.17"/><line class="cls-1" x1="18.1" y1="19.57" x2="18.1" y2="15.17"/><path class="cls-1" d="M4.39,2C4.56,1.5,4.73,1,4.9.5"/><path class="cls-1" d="M2,15.17a40,40,0,0,1,.45-6.5"/><path class="cls-1" d="M18.1,15.17C18.1,7.06,16.63,4.9,15.16.5"/><line class="cls-1" x1="4.9" y1="0.5" x2="15.17" y2="0.5"/><path class="cls-1" d="M1.23,22.5c0-1.62.33-2.93.73-2.93"/><path class="cls-1" d="M18.83,22.5c0-1.62-.33-2.93-.73-2.93"/><line class="cls-1" x1="7.83" y1="8.57" x2="7.83" y2="14.43"/><line class="cls-1" x1="12.23" y1="8.57" x2="12.23" y2="14.43"/><line class="cls-1" x1="10.77" y1="9.3" x2="12.23" y2="9.3"/><line class="cls-1" x1="0.5" y1="1.97" x2="4.39" y2="1.97"/><line class="cls-1" x1="0.5" y1="1.97" x2="2.41" y2="8.67"/><line class="cls-1" x1="15.17" y1="0.5" x2="19.57" y2="0.5"/><path class="cls-1" d="M22.5,3.43A2.93,2.93,0,0,0,19.57.5h0"/><line class="cls-1" x1="22.5" y1="12.23" x2="22.5" y2="3.43"/><path class="cls-1" d="M20.3,4.17A1.47,1.47,0,0,0,18.83,2.7h0"/><line class="cls-1" x1="20.3" y1="10.03" x2="20.3" y2="4.17"/><line class="cls-1" x1="18.83" y1="2.7" x2="15.95" y2="2.7"/><path class="cls-1" d="M20.3,10a2.2,2.2,0,0,0,2.2,2.2"/><path class="cls-1" d="M7.83,8.57a2.2,2.2,0,1,1,4.4,0"/><path class="cls-1" d="M12.23,14.43a2.2,2.2,0,0,1-4.4,0"/><line class="cls-1" x1="10.77" y1="13.7" x2="12.23" y2="13.7"/><line class="cls-1" x1="10.77" y1="11.5" x2="12.23" y2="11.5"/></g></g></g></svg>