<svg class="qodef-ei-svg-icon qodef--gas" xmlns="http://www.w3.org/2000/svg" width="5.45mm" height="9.17mm" viewBox="0 0 15.45 26" xmlns:dc="http://purl.org/dc/elements/1.1/" xmlns:cc="http://creativecommons.org/ns#" xmlns:rdf="http://www.w3.org/1999/02/22-rdf-syntax-ns#" xmlns:svg="http://www.w3.org/2000/svg" stroke="rgb(62, 62, 62)" fill="none"><defs><style>.cls-1{fill:none;stroke:#3e3e3e;stroke-linecap:round;stroke-linejoin:round;}</style></defs><title>gas</title><g><g><path class="cls-1" d="M15,10.9a2.07,2.07,0,0,0-2.06-2.08h0"/><line class="cls-1" x1="0.5" y1="10.9" x2="0.5" y2="25.5"/><line class="cls-1" x1="14.95" y1="10.9" x2="14.95" y2="25.5"/><line class="cls-1" x1="2.56" y1="8.82" x2="12.89" y2="8.82"/><g><line class="cls-1" x1="6.8" y1="4.66" x2="6.8" y2="0.5"/><line class="cls-1" x1="8.65" y1="4.66" x2="8.65" y2="0.5"/></g><line class="cls-1" x1="3.08" y1="0.5" x2="12.37" y2="0.5"/><line class="cls-1" x1="14.95" y1="20.31" x2="0.5" y2="20.31"/><line class="cls-1" x1="14.95" y1="25.5" x2="0.5" y2="25.5"/><line class="cls-1" x1="4.63" y1="4.66" x2="10.82" y2="4.66"/><line class="cls-1" x1="4.63" y1="4.66" x2="4.63" y2="8.82"/><line class="cls-1" x1="10.82" y1="4.66" x2="10.82" y2="8.82"/><line class="cls-1" x1="4.36" y1="4.3" x2="0.88" y2="0.79"/><line class="cls-1" x1="10.82" y1="4.48" x2="14.42" y2="0.85"/></g></g></svg>