<svg class="qodef-ei-svg-icon qodef--essentials" xmlns="http://www.w3.org/2000/svg" width="9.17mm" height="8mm" viewBox="0 0 26 22.67" xmlns:dc="http://purl.org/dc/elements/1.1/" xmlns:cc="http://creativecommons.org/ns#" xmlns:rdf="http://www.w3.org/1999/02/22-rdf-syntax-ns#" xmlns:svg="http://www.w3.org/2000/svg" stroke="rgb(62, 62, 62)" fill="none"><defs><style>.cls-1{fill:none;stroke:#3e3e3e;stroke-linecap:round;stroke-linejoin:round;}</style></defs><title>essentials</title><g><g><g><path class="cls-1" d="M10.5,8.83a1.67,1.67,0,0,1,1.66-1.67h0"/><path class="cls-1" d="M22.17,8.83A1.67,1.67,0,0,0,20.5,7.17h0"/><line class="cls-1" x1="10.5" y1="8.83" x2="10.5" y2="18"/><line class="cls-1" x1="22.17" y1="8.83" x2="22.17" y2="18"/><line class="cls-1" x1="12.17" y1="7.17" x2="20.5" y2="7.17"/><line class="cls-1" x1="14.67" y1="3.83" x2="14.67" y2="0.5"/><line class="cls-1" x1="18" y1="3.83" x2="18" y2="0.5"/><line class="cls-1" x1="14.67" y1="0.5" x2="18" y2="0.5"/><line class="cls-1" x1="14.67" y1="0.5" x2="10.5" y2="0.5"/><line class="cls-1" x1="13.83" y1="3.83" x2="18.83" y2="3.83"/><line class="cls-1" x1="13.83" y1="3.83" x2="13.83" y2="7.17"/><line class="cls-1" x1="18.83" y1="3.83" x2="18.83" y2="7.17"/><line class="cls-1" x1="3.83" y1="10.5" x2="3.83" y2="18"/><line class="cls-1" x1="10.5" y1="10.5" x2="3.83" y2="10.5"/><path class="cls-1" d="M.5,20.5a1.67,1.67,0,0,0,1.67,1.67h0"/><line class="cls-1" x1="0.5" y1="20.5" x2="0.5" y2="18"/><line class="cls-1" x1="2.17" y1="22.17" x2="23.83" y2="22.17"/><line class="cls-1" x1="25.5" y1="18" x2="25.5" y2="20.5"/><line class="cls-1" x1="0.5" y1="18" x2="25.5" y2="18"/><path class="cls-1" d="M25.5,20.5a1.67,1.67,0,0,1-1.67,1.67h0"/></g></g></g></svg>