<svg class="qodef-ei-svg-icon qodef--aircon" xmlns="http://www.w3.org/2000/svg" width="9.14mm" height="6.81mm" viewBox="0 0 25.91 19.3"><defs><style>.cls-1{fill:none;stroke:#3e3e3e;stroke-linecap:round;stroke-linejoin:round;}</style></defs><title>aircon</title><g><g><path class="cls-1" d="M23.8.5H2.2A1.69,1.69,0,0,0,.5,2.2V8.9a3.33,3.33,0,0,0,3.3,3.3H22.1a3.33,3.33,0,0,0,3.3-3.3V2.2A1.5,1.5,0,0,0,23.8.5h0"></path><polyline class="cls-1" points="3.8 12.2 3.8 8.8 22.2 8.8 22.2 8.8 22.2 12.2"></polyline><line class="cls-1" x1="12.2" y1="5.5" x2="13.8" y2="5.5"></line><line class="cls-1" x1="13" y1="15.5" x2="13" y2="18.8"></line><path class="cls-1" d="M6.3,15.5A3.33,3.33,0,0,1,3,18.8H3"></path><path class="cls-1" d="M19.7,15.5A3.33,3.33,0,0,0,23,18.8h0"></path><path class="cls-1" d="M9.7,15.5c0,1.8-.1,2.6-.8,3.3"></path><path class="cls-1" d="M16.3,15.5c0,1.8.1,2.6.8,3.3"></path></g></g></svg>