<svg class="qodef-ei-svg-icon qodef--shower" xmlns="http://www.w3.org/2000/svg" width="6.68mm" height="8.1mm" viewBox="0 0 18.95 22.96"><defs><style>.cls-1{fill:none;stroke:#3e3e3e;stroke-linecap:round;stroke-linejoin:round;}</style></defs><title>shower</title><g><g><line class="cls-1" x1="6.87" y1="5.33" x2="18.45" y2="5.33"></line><line class="cls-1" x1="12.66" y1="2.43" x2="12.66" y2="5.33"></line><line class="cls-1" x1="12.66" y1="8.31" x2="12.66" y2="10.24"></line><line class="cls-1" x1="12.66" y1="13.52" x2="12.66" y2="15.45"></line><line class="cls-1" x1="12.66" y1="18.52" x2="12.66" y2="20.45"></line><line class="cls-1" x1="8.8" y1="8.31" x2="8.8" y2="10.24"></line><line class="cls-1" x1="8.8" y1="13.52" x2="8.8" y2="15.45"></line><line class="cls-1" x1="8.8" y1="18.52" x2="8.8" y2="20.45"></line><line class="cls-1" x1="16.52" y1="8.31" x2="16.52" y2="10.24"></line><line class="cls-1" x1="16.52" y1="13.52" x2="16.52" y2="15.45"></line><line class="cls-1" x1="16.52" y1="18.52" x2="16.52" y2="20.45"></line><path class="cls-1" d="M.5,2.43A1.93,1.93,0,0,1,2.43.5h0"></path><path class="cls-1" d="M12.66,2.43A1.93,1.93,0,0,0,10.73.5h0"></path><line class="cls-1" x1="2.43" y1="0.5" x2="10.73" y2="0.5"></line></g></g></svg>