<svg xmlns="http://www.w3.org/2000/svg" width="99.632" height="63.978" viewBox="0 0 99.632 63.978">
<path id="cabin" d="M236.849,314.583,285.263,278.2l48.418,36.378m-7.54-4.751v30.344H312.01v-33.23m-24.413,0,0,33.236H245.1v-31.8m81.037,25.153h-14.1m-24.5,0H245.1m81.037-6.645h-14.1m-24.5,0H245.1m81.037-6.643h-14.1m-24.5,0H273.857m-17.475,0H245.1m81.037-6.645h-14.1m-24.5,0H273.857m-17.475,0H245.1m78.414-6.643-76.5,0m67.654-6.645-58.809,0m49.962-6.644H264.707m32.269-6.645-23.422,0m-17.172,19.945v19.936m17.484-19.936v19.936" transform="translate(-235.449 -277.205)" fill="none" stroke="#446851" stroke-linecap="round" stroke-linejoin="round" stroke-miterlimit="22.926" stroke-width="2" fill-rule="evenodd"></path>
</svg>