<svg class="qodef-ei-svg-icon qodef--sunloger" xmlns="http://www.w3.org/2000/svg" width="9.17mm" height="4.2mm" viewBox="0 0 26 11.91" xmlns:dc="http://purl.org/dc/elements/1.1/" xmlns:cc="http://creativecommons.org/ns#" xmlns:rdf="http://www.w3.org/1999/02/22-rdf-syntax-ns#" xmlns:svg="http://www.w3.org/2000/svg" stroke="rgb(62, 62, 62)" fill="none"><defs><style>.cls-1{fill:none;stroke:#3e3e3e;stroke-linecap:round;stroke-linejoin:round;}</style></defs><title>sunloger</title><g><g><g><path class="cls-1" d="M25.5,7.24a1.67,1.67,0,0,0-1.67-1.67"/><path class="cls-1" d="M25.5,7.24a1.67,1.67,0,0,1-1.67,1.67h0"/><line class="cls-1" x1="23.83" y1="5.58" x2="9.52" y2="5.58"/><line class="cls-1" x1="23.83" y1="8.91" x2="8.14" y2="8.91"/><path class="cls-1" d="M1,1.07A1.67,1.67,0,0,0,1,3.43H1"/><path class="cls-1" d="M1,1.07a1.67,1.67,0,0,1,2.36,0h0"/><line class="cls-1" x1="0.99" y1="3.42" x2="4.81" y2="7.24"/><line class="cls-1" x1="3.35" y1="1.06" x2="6.19" y2="3.91"/><path class="cls-1" d="M4.81,7.24A4.19,4.19,0,0,0,8.14,8.91"/><path class="cls-1" d="M6.19,3.91A4.19,4.19,0,0,0,9.52,5.58"/><line class="cls-1" x1="20.5" y1="8.91" x2="21.33" y2="11.41"/><line class="cls-1" x1="8.83" y1="8.91" x2="8" y2="11.41"/></g><rect class="cls-1" x="4.07" y="0.97" width="3.25" height="1.91" rx="0.95" ry="0.95" transform="translate(3.03 -3.46) rotate(45)"/></g></g></svg>