<svg class="qodef-ei-svg-icon qodef--hair_dryer" xmlns="http://www.w3.org/2000/svg" width="8.64mm" height="7.54mm" viewBox="0 0 24.5 21.37" xmlns:dc="http://purl.org/dc/elements/1.1/" xmlns:cc="http://creativecommons.org/ns#" xmlns:rdf="http://www.w3.org/1999/02/22-rdf-syntax-ns#" xmlns:svg="http://www.w3.org/2000/svg" stroke="rgb(62, 62, 62)" fill="none"><defs><style>.cls-1{fill:none;stroke:#3e3e3e;stroke-linecap:round;stroke-linejoin:round;}</style></defs><title>hair_dryer</title><g><g><g><path class="cls-1" d="M19.3,9.9a4.7,4.7,0,1,0,0-9.4"/><line class="cls-1" x1="5.2" y1="2.07" x2="5.2" y2="8.33"/><line class="cls-1" x1="19.3" y1="0.5" x2="5.2" y2="2.07"/><line class="cls-1" x1="19.3" y1="9.9" x2="5.2" y2="8.33"/><line class="cls-1" x1="19.3" y1="19.3" x2="19.3" y2="9.9"/><path class="cls-1" d="M19.3,19.3a1.57,1.57,0,0,1-1.57,1.57h0"/><line class="cls-1" x1="17.73" y1="20.87" x2="16.17" y2="20.87"/><line class="cls-1" x1="16.17" y1="20.87" x2="14.75" y2="9.39"/><line class="cls-1" x1="5.2" y1="2.07" x2="0.5" y2="0.5"/><line class="cls-1" x1="5.2" y1="8.33" x2="0.5" y2="9.9"/><line class="cls-1" x1="0.5" y1="0.5" x2="0.5" y2="9.9"/><line class="cls-1" x1="14.42" y1="13.03" x2="15.2" y2="13.03"/><line class="cls-1" x1="14.68" y1="15.38" x2="15.46" y2="15.38"/></g></g></g></svg>