<svg class="qodef-ei-svg-icon qodef--cabin" xmlns="http://www.w3.org/2000/svg" width="9.77mm" height="6.38mm" viewBox="0 0 27.7 18.09" xmlns:dc="http://purl.org/dc/elements/1.1/" xmlns:cc="http://creativecommons.org/ns#" xmlns:rdf="http://www.w3.org/1999/02/22-rdf-syntax-ns#" xmlns:svg="http://www.w3.org/2000/svg" stroke="rgb(52, 94, 65)" fill="none"><defs><style>.cls-1{fill:none;stroke:#3e3e3e;stroke-linecap:round;stroke-linejoin:round;}</style></defs><title>cabin</title><g><g><path class="cls-1" d="M.5,10.53,13.85.5l13.35,10M25.12,9v8.62h-3.9v-9m-6.73.1v8.9H2.77V8.82M14,11.09H10.86M21.7,6.58H5.94M19.1,4.5H8.57m8.31-1.75h-6m13.8,12.68H21.55m-7.62-2.34H10.82m14-2.09H21.7m3.07,2.25H21.66M6.2,11.07H3.09m3.07,2H3m11.29,2.36H2.92M24.6,8.59H3.09m3.17,0v6.63m4.45-6.63v6.69"/></g></g></svg>