<svg class="qodef-ei-svg-icon qodef--pet_friendly" xmlns="http://www.w3.org/2000/svg" width="9.17mm" height="8mm" viewBox="0 0 26 22.67"><defs><style>.cls-1{fill:none;stroke:#3e3e3e;stroke-linecap:round;stroke-linejoin:round;}</style></defs><title>pet_friendly</title><g><g><g><path class="cls-1" d="M5.5,19.25c0-3.75,3.33-8.75,7.5-8.75"></path><path class="cls-1" d="M20.5,19.25c0-3.75-3.33-8.75-7.5-8.75"></path><path class="cls-1" d="M5.5,19.25a3,3,0,0,0,3,2.92h0"></path><path class="cls-1" d="M20.5,19.25a3,3,0,0,1-3,2.92h0"></path><path class="cls-1" d="M8.5,22.17c2,0,2-1.25,4.5-1.25"></path><path class="cls-1" d="M17.5,22.17c-2,0-2-1.25-4.5-1.25"></path><ellipse class="cls-1" cx="9.25" cy="3.83" rx="2.5" ry="3.33"></ellipse><ellipse class="cls-1" cx="16.75" cy="3.83" rx="2.5" ry="3.33"></ellipse><ellipse class="cls-1" cx="22.77" cy="9.25" rx="3.33" ry="2.5" transform="translate(3.37 24.34) rotate(-60)"></ellipse><ellipse class="cls-1" cx="3.23" cy="9.25" rx="2.5" ry="3.33" transform="translate(-4.19 2.86) rotate(-30)"></ellipse></g></g></g></svg>