<svg xmlns="http://www.w3.org/2000/svg" width="124.759" height="74.434" viewBox="0 0 124.759 74.434">
<path id="activity_hike" d="M96.991,334.739l4.121-4.023,1.89-3.478,2.914-2.89,11.9,2.089m0,0,3.254,4.205m0,0,1.14,1.476,8.054,3.869,8.3,7.762,5.9,2.287,2.068,3.094m-44.341-20.4-4.673.626-6.25-2.157-5.388.333-1.473,2.387-2.023.878m0,0-2.755,1.224m0,0-1.665.732-4.812,4.758M37.883,305.655l-2.835.759a4.408,4.408,0,0,0-1.76,2.6l.519,16.307a2.352,2.352,0,0,0,.947,2.113l4.554.414m29.672-12.975L65.99,347.854m4.085-45.05-.528,5.827M127.868,357.8l-14.637-12.555-8.627-2.687-3.712-4.276-8.517-1.791-3.768-.01-4.749,3.79-6.225,1.244-5.352,6.318-10.135.178-3.5,4.5-18.567-.336-2.108,4.738-10.32-.083-3.93,6.577m20.709-56.9s9.348.737,10.8,1.8l4.617,4.831L67.3,309.4l.653-.8,2.828-.214.809.858-.483,4.478L59.31,319.908l-.922-.428L55,316.28l-.677.382-1.721,7.717.426,1.2,7.861,1.907a3.359,3.359,0,0,1,2.154,3.7l-3.88,19.382c-.883,2.541-6.536,1.833-6.016.042a107.779,107.779,0,0,1,2.275-15.9,41.184,41.184,0,0,1-7.068-1.4l-1.092.483-8.754,21.563c-1.41,2.216-7.011,1.848-6.4-.205l4.775-15.691,3.369-14.6-.105-11.012L36.595,301a1.93,1.93,0,0,1,.923-2.2c3.026-1.508,10.3-5.013,14.025-5.762,4.772-.962,4.5-.305,4.972.8s-.559,1.224-2.162,1.93a83.6,83.6,0,0,0-11.593,6.477l-.031.519,1.707,3.731Zm.706-5.626a6.318,6.318,0,0,0,4.484,2.831c2.4.245,4.441-.69,5.172-3.154a19.119,19.119,0,0,0,.456-5.807m-.91-2.144c-.058-.318-.814-.862-.982-.962-2.99-1.778-8.974-1.2-9.286,3.039-.012.178-.018.387-.015.619m84.807,4.963h-6.532M135.95,306.5H123.96m-15.5,4.707a8.819,8.819,0,1,0-2.135-5.753M112.2,306.5H94.216m2.608-5.371H83.387m20.56-4.748H97.415m-52.965,10.3c1.881,1.945.928,14.01-4.194,18.182m13.778-16.9c1.032.977,1.21,4.74.317,8.571" transform="translate(-22.755 -289.944)" fill="none" stroke="#446851" stroke-linecap="round" stroke-linejoin="round" stroke-miterlimit="22.926" stroke-width="1.417" fill-rule="evenodd"></path>
</svg>