<?xml version="1.0" encoding="iso-8859-1"?>
<!-- Uploaded to: SVG Repo, www.svgrepo.com, Generator: SVG Repo Mixer Tools -->
<!DOCTYPE svg PUBLIC "-//W3C//DTD SVG 1.1//EN" "http://www.w3.org/Graphics/SVG/1.1/DTD/svg11.dtd">
<svg height="800px" width="800px" version="1.1" id="Capa_1" xmlns="http://www.w3.org/2000/svg" xmlns:xlink="http://www.w3.org/1999/xlink" 
	 viewBox="0 0 141.349 141.349" xml:space="preserve">
<g>
	<path style="fill:#426170;" d="M134.007,61.963c-3.878-3.993-8.839-6.593-14.235-7.512c-1.046-9.38-9.022-16.695-18.677-16.695
		c-2.191,0-4.331,0.373-6.351,1.1c-2.108-5.596-5.693-10.604-10.376-14.41c-6.021-4.898-13.618-7.594-21.393-7.594
		c-9.064,0-17.585,3.528-23.994,9.938c-6.41,6.41-9.94,14.931-9.94,23.994c0,1.782-1.388,3.226-3.163,3.297
		c-0.017,0-0.031,0-0.047,0.001c-0.071,0.002-0.176,0.001-0.195,0.001c-0.02,0-0.039,0-0.057,0.001
		c-6.786,0.102-13.168,2.803-17.973,7.604C2.701,66.595,0,73.122,0,80.064c0,14.328,11.656,25.984,25.983,25.984h10.719v-7.518
		H25.983c-10.183,0-18.466-8.284-18.466-18.467c0-4.935,1.919-9.573,5.405-13.06c3.408-3.407,7.933-5.325,12.743-5.405
		c0.242,0,0.37-0.002,0.456-0.005c2.808-0.099,5.431-1.264,7.389-3.285c1.965-2.027,3.049-4.7,3.049-7.525
		c0-14.565,11.849-26.415,26.416-26.415c6.051,0,11.965,2.099,16.649,5.908c4.621,3.759,7.868,9.011,9.144,14.789
		c0.271,1.229,1.138,2.24,2.313,2.695c1.173,0.454,2.495,0.291,3.524-0.434c1.904-1.344,4.148-2.054,6.489-2.054
		c6.218,0,11.276,5.058,11.276,11.275c0,0.318-0.014,0.647-0.043,0.979c-0.088,1.029,0.251,2.048,0.938,2.818
		c0.686,0.771,1.658,1.228,2.69,1.259c4.807,0.151,9.302,2.138,12.658,5.596c3.365,3.464,5.218,8.032,5.218,12.862
		c0,10.183-8.285,18.467-18.468,18.467h-10.718v7.518h10.718c14.327,0,25.984-11.656,25.984-25.984
		C141.349,73.267,138.742,66.839,134.007,61.963z"/>
	<g>
		<g>
			<path style="fill:#7997A8;" d="M49.222,124.497c-1.324,0-2.398-1.074-2.398-2.399V90.259c0-1.325,1.074-2.4,2.398-2.4
				c1.327,0,2.4,1.075,2.4,2.4v31.838C51.622,123.422,50.549,124.497,49.222,124.497z"/>
		</g>
		<g>
			<path style="fill:#7997A8;" d="M57.529,124.497c-1.326,0-2.399-1.074-2.399-2.399V90.259c0-1.325,1.073-2.4,2.399-2.4
				c1.324,0,2.399,1.075,2.399,2.4v31.838C59.928,123.422,58.854,124.497,57.529,124.497z"/>
		</g>
		<g>
			<path style="fill:#7997A8;" d="M65.835,124.497c-1.325,0-2.4-1.074-2.4-2.399V90.259c0-1.325,1.075-2.4,2.4-2.4
				s2.399,1.075,2.399,2.4v31.838C68.234,123.422,67.16,124.497,65.835,124.497z"/>
		</g>
		<g>
			<path style="fill:#7997A8;" d="M74.141,124.497c-1.326,0-2.4-1.074-2.4-2.399V90.259c0-1.325,1.074-2.4,2.4-2.4
				c1.325,0,2.399,1.075,2.399,2.4v31.838C76.54,123.422,75.466,124.497,74.141,124.497z"/>
		</g>
		<g>
			<path style="fill:#7997A8;" d="M82.446,124.497c-1.325,0-2.399-1.074-2.399-2.399V90.259c0-1.325,1.074-2.4,2.399-2.4
				c1.326,0,2.4,1.075,2.4,2.4v31.838C84.847,123.422,83.773,124.497,82.446,124.497z"/>
		</g>
		<g>
			<path style="fill:#7997A8;" d="M90.752,124.497c-1.325,0-2.399-1.074-2.399-2.399V90.259c0-1.325,1.074-2.4,2.399-2.4
				c1.325,0,2.399,1.075,2.399,2.4v31.838C93.151,123.422,92.077,124.497,90.752,124.497z"/>
		</g>
	</g>
</g>
</svg>